<?xml version="1.0" encoding="UTF-8" standalone="no"?>
<svg
   xmlns:dc="http://purl.org/dc/elements/1.1/"
   xmlns:cc="http://creativecommons.org/ns#"
   xmlns:rdf="http://www.w3.org/1999/02/22-rdf-syntax-ns#"
   xmlns:svg="http://www.w3.org/2000/svg"
   xmlns="http://www.w3.org/2000/svg"
   xmlns:sodipodi="http://sodipodi.sourceforge.net/DTD/sodipodi-0.dtd"
   xmlns:inkscape="http://www.inkscape.org/namespaces/inkscape"
   version="1.1"
   id="Layer_1"
   x="0px"
   y="0px"
   viewBox="0 0 1082.576 1691.781"
   enable-background="new 0 0 1082.576 1691.781"
   xml:space="preserve"
   sodipodi:docname="putinhuilio.svg"
   inkscape:version="1.0.2 (e86c870879, 2021-01-15)"><metadata
   id="metadata46"><rdf:RDF><cc:Work
       rdf:about=""><dc:format>image/svg+xml</dc:format><dc:type
         rdf:resource="http://purl.org/dc/dcmitype/StillImage" /><dc:title></dc:title></cc:Work></rdf:RDF></metadata><defs
   id="defs44" /><sodipodi:namedview
   pagecolor="#ffffff"
   bordercolor="#666666"
   borderopacity="1"
   objecttolerance="10"
   gridtolerance="10"
   guidetolerance="10"
   inkscape:pageopacity="0"
   inkscape:pageshadow="2"
   inkscape:window-width="1366"
   inkscape:window-height="704"
   id="namedview42"
   showgrid="false"
   inkscape:zoom="0.28490685"
   inkscape:cx="541.28802"
   inkscape:cy="845.8905"
   inkscape:window-x="0"
   inkscape:window-y="0"
   inkscape:window-maximized="1"
   inkscape:current-layer="Layer_1" />
<g
   id="g39">
	<radialGradient
   id="SVGID_1_"
   cx="533.7941"
   cy="1103.9585"
   r="576.4108"
   gradientUnits="userSpaceOnUse">
		<stop
   offset="0"
   style="stop-color:#F18135"
   id="stop2" />
		<stop
   offset="1"
   style="stop-color:#8F0200"
   id="stop4" />
	</radialGradient>
	<path
   fill="url(#SVGID_1_)"
   d="M989.914,913.104C811.95,609.347,629.325,328.54,542.919,45.89   C472.698,332.369,284.143,606.81,95.616,913.012c-196.081,318.471,69.844,732.878,447.126,732.878   C920.418,1645.891,1178.692,1235.318,989.914,913.104z"
   id="path7" />
	<linearGradient
   id="SVGID_2_"
   gradientUnits="userSpaceOnUse"
   x1="206.8456"
   y1="1320.7885"
   x2="206.8456"
   y2="580.3895">
		<stop
   offset="0"
   style="stop-color:#FFFFFF"
   id="stop9" />
		<stop
   offset="0.2587"
   style="stop-color:#FFFFFF"
   id="stop11" />
		<stop
   offset="0.4044"
   style="stop-color:#EFC9C8"
   id="stop13" />
		<stop
   offset="0.6998"
   style="stop-color:#D05F5D"
   id="stop15" />
		<stop
   offset="0.9045"
   style="stop-color:#BD1D1A"
   id="stop17" />
		<stop
   offset="1"
   style="stop-color:#B50300"
   id="stop19" />
	</linearGradient>
	<path
   fill="url(#SVGID_2_)"
   d="M340.341,587.381c-39.869,128.182-71.494,253.345-97.904,375.696   c-17.207,79.713-28.814,161.257-23.879,245.954c4.052,69.541-2.123,122.334-34.227,129.743   c-51.236,11.824-90.42-42.341-103.874-103.874c-26.55-121.43,25.254-254.079,89.546-377.686   C207.46,785.201,273.48,690.929,340.341,587.381z"
   id="path22" />
	<linearGradient
   id="SVGID_3_"
   gradientUnits="userSpaceOnUse"
   x1="824.7034"
   y1="1611.5441"
   x2="824.7034"
   y2="1296.9102">
		<stop
   offset="0"
   style="stop-color:#FFFFFF"
   id="stop24" />
		<stop
   offset="0.2587"
   style="stop-color:#FFFFFF"
   id="stop26" />
		<stop
   offset="0.4044"
   style="stop-color:#EFC9C8"
   id="stop28" />
		<stop
   offset="0.6998"
   style="stop-color:#D05F5D"
   id="stop30" />
		<stop
   offset="0.9045"
   style="stop-color:#BD1D1A"
   id="stop32" />
		<stop
   offset="1"
   style="stop-color:#B50300"
   id="stop34" />
	</linearGradient>
	<path
   fill="url(#SVGID_3_)"
   d="M634.703,1619.881c191.608-36.3,316.816-144.548,380-320   C932.223,1450.023,808.573,1559.658,634.703,1619.881z"
   id="path37" />
</g>
<g
   id="g803"
   transform="matrix(1.5622396,0,0,1.5622396,252.7352,616.36663)">
	<path
   d="m 41.995,327.664 c -0.059,-0.005 2.444,-12.124 3.291,-22.608 0.611,-10.494 1.083,-2.738 1.951,-16.171 0.279,-13.491 -1.383,-8.608 -1.506,-2.921 -0.423,5.682 0.241,3.832 -1.062,12.322 -1.474,8.453 -2.385,8.313 -4.239,21.51 -1.78,13.26 1.575,7.868 1.565,7.868 z"
   id="path689" />
	<path
   d="m 221.806,399.476 c -1.362,0.697 -2.67,1.356 -3.672,1.86 -3.591,1.801 -12.891,0 -14.687,-0.3 -1.394,-0.23 -4.604,-0.467 -11.417,-1.394 -2.262,-0.467 -4.288,-0.858 -6.534,-1.233 -1.769,-0.423 -3.79,-0.67 -6.009,-1.26 -2.75,-0.985 -5.333,-2.267 -7.627,-3.606 -1.893,-1.378 -3.875,-3.222 -5.923,-5.768 -7.67,-9.868 -11.738,-11.76 -12.333,-11.449 -0.713,0.252 0.938,2.471 0.917,2.46 0.155,-0.139 3.939,4.042 9.08,10.731 0.059,0.08 0.139,0.166 0.209,0.246 3.913,8.158 12.875,14.092 20.153,15.169 8.094,1.2 15.286,3.602 29.973,1.796 11.348,-1.389 14.279,-7.236 15.035,-9.836 4.353,-2.487 6.089,-2.878 5.66,-3.345 -0.552,0.14 -5.553,1.115 -10.023,4.144 -1.087,0.671 -2.004,1.255 -2.802,1.785 z"
   id="path691" />
	<path
   d="m 172.418,159.581 c -0.128,0.595 21.199,3.956 38.56,8.094 17.366,4.958 3.982,2.557 26.402,9.567 11.927,2.412 15.989,-0.9 15.335,-0.648 -0.563,-0.338 -5.167,0.541 -10.104,-0.102 -9.647,-1.919 -6.694,-0.702 -20.352,-6.4 -13.716,-5.381 -13.737,-6.544 -36.448,-10.559 -22.483,-4.278 -13.387,-0.086 -13.393,0.048 z"
   id="path693" />
	<path
   d="m 289.319,181.819 c -2.707,-0.954 -1.844,-0.386 -5.934,-1.833 -4.159,-1.275 -4.159,-2.074 -10.715,-3.039 -6.432,-1.136 -4.186,1.865 -4.153,1.892 -0.032,0.081 6.143,1.828 11.363,1.957 5.167,0.407 1.42,0.595 7.595,2.155 5.827,2.18 4.465,0.203 1.844,-1.132 z"
   id="path695" />
	<path
   d="m 284.796,163.745 c -0.306,-0.546 -5.923,-3.27 -12.698,-3.8 -13.352,-1.238 -9.016,0.814 -29.051,-1.705 -19.135,-5.178 -18.744,-9.444 -50.233,-11.792 -30.654,-4.481 -18.01,-0.874 -18.069,-0.225 -0.021,0.048 7.14,1.93 17.506,3.087 10.372,1.286 23.745,1.795 35.338,5.869 11.7,3.725 13.582,4.047 16.063,4.62 2.46,0.59 6.089,1.388 21.713,1.404 15.518,0.345 19.672,3.469 19.431,2.542 z"
   id="path697" />
	<path
   d="m 259.92,142.418 c -12.537,0.456 -18.749,-0.75 -26.044,-3.688 -7.188,-2.546 -15.946,-8.989 -35.831,-10.784 -38.924,-3.146 -22.405,0.643 -22.442,0.761 -0.021,0.124 9.069,0.772 21.81,2.091 6.346,0.697 13.651,1.817 20.711,4.363 7.129,2.492 14.359,6.395 22.152,7.777 30.868,2.037 8.796,0.011 47.248,1.195 18.953,2.567 22.587,9.364 22.598,7.841 -0.235,-0.622 -6.003,-6.003 -14.246,-7.992 -16.333,-2.899 -10.974,-1.886 -35.956,-1.564 z"
   id="path699" />
	<path
   d="m 300.704,133.981 c 6.485,2.6 4.803,0.338 1.999,-0.949 -2.793,-1.244 -1.94,-0.579 -6.115,-2.567 -4.16,-2.042 -3.951,-2.809 -10.704,-5.086 -6.722,-2.278 -4.674,1.168 -4.658,1.168 -0.005,0 6.089,2.873 11.578,4.057 5.391,1.378 1.312,0.944 7.9,3.377 z"
   id="path701" />
	<path
   d="m 315.706,247.253 c 0.601,-0.9 -0.3,-3.896 -0.3,-4.792 -0.3,-6.604 -1.79,-18.889 -8.099,-22.791 -2.391,-1.195 -6.894,-1.195 -9.89,-2.396 -3.296,-1.496 -6.292,-4.197 -9.895,-5.098 -8.088,-2.09 -16.481,-3.291 -24.875,-4.792 -8.399,-1.801 -16.782,1.5 -21.59,8.994 -2.691,3.896 -3.297,8.688 -5.987,12.585 -1.956,2.938 -5.296,8.64 -4.851,12.606 -0.531,0.038 -1.008,0.257 -1.008,0.257 0,0.011 -1.035,2.659 -0.713,4.953 0.306,2.38 -0.633,0.59 -0.799,3.618 -0.161,3.034 1.372,1.93 1.592,0.675 0.215,-1.249 -0.246,-0.857 0.445,-2.717 0.225,-0.606 0.482,-0.997 0.724,-1.367 -0.049,2.46 0.273,5.827 2.202,7.161 0.997,0.681 1.802,1.334 2.472,1.817 -0.439,0.815 -0.525,1.897 -0.521,1.903 0.445,-0.52 5.365,17.125 17.801,27.132 5.869,4.722 7.032,5.242 8.281,6.458 0.938,0.493 4.443,4.637 14.928,0.605 8.951,-4.647 10.184,-5.494 10.001,-6.26 -0.418,-0.724 -4.073,-0.37 -7.691,1.517 -3.618,1.683 -4.802,2.358 -6.604,2.862 -1.607,0.273 -4.625,1.64 -9.771,-1.571 -8.748,-8.023 -8.223,-8.667 -17.394,-23.927 -2.364,-4.422 -4.144,-6.946 -5.499,-8.292 0,-0.042 0,-0.085 0,-0.128 0,0.032 -0.006,0.081 -0.006,0.112 -0.241,-0.241 -0.477,-0.439 -0.691,-0.616 0.027,-0.075 0.06,-0.134 0.092,-0.22 0.225,-0.574 0.364,-0.691 0.461,-0.584 -0.397,-2.557 -1.228,-5.762 0.943,-5.607 2.792,0.193 5.992,1.598 6.791,1.598 0.804,0 2.6,0.396 3.397,-1.801 0.129,-0.332 0.236,-0.627 0.327,-0.89 0.021,0.032 0.054,0.064 0.075,0.086 0.396,0.804 -0.402,3.602 -0.402,3.602 0,0 2,-0.402 2,-0.997 0,-0.601 1.801,-1.201 2.99,-1.201 1.206,0 -1.394,-2.198 -2.197,-2.997 -0.601,-0.605 0.171,-2.696 1.013,-3.934 1.035,-0.273 2.117,-0.531 3.243,-0.756 -0.396,1.045 -0.954,2.798 -0.954,4.443 0,2.546 2.852,5.987 7.343,7.938 4.503,1.951 7.794,0.45 10.795,-1.951 2.997,-2.391 4.947,-4.792 4.642,-6.893 -0.203,-1.447 -1.05,-2.953 -1.704,-3.859 2.091,0.294 2.391,0.482 3.623,1.061 3.463,3.849 19.146,10.72 17.967,9.546 -0.933,-0.949 -11.588,-6.432 -16.139,-8.753 1.544,0.622 3.966,1.5 8.174,2.809 7.097,2.744 8.893,5.971 9.188,4.979 -0.236,-0.392 -2.203,-3.296 -5.302,-5.087 -6.604,-2.948 -4.534,-1.581 -14.793,-5.333 -8.897,-1.683 -10.56,-3.511 -21.017,-1.989 0.739,-0.563 1.983,-1.275 3.317,-2.615 2,-1.994 5.602,-4.797 9.793,-5.602 4.202,-0.798 7.799,-1.394 13.395,1.002 4.878,2.096 7.933,3.575 9.166,3.253 2.524,2.578 4.894,5.387 7.418,8.04 3.302,3.597 4.502,3.597 8.693,4.197 2.098,0.308 3.31,3.009 5.4,0.007 z m -72.648,-0.299 c 0.381,-0.064 0.696,-0.161 0.696,-0.161 -0.069,-0.091 0.081,-0.257 0.408,-0.488 0.434,0.183 0.986,0.392 1.704,0.649 0,0 0.005,0 0.005,0.011 -1.093,0.106 -2.182,0.149 -2.813,-0.011 z m 19.649,-4.192 c 0,0 1.19,3.892 2.841,4.042 1.651,0.15 4.652,-0.15 6.442,-1.795 1.807,-1.651 1.807,-1.651 1.807,-1.651 0,0 2.096,5.097 -0.155,7.648 -2.246,2.541 -6.442,3.441 -10.189,1.04 -3.747,-2.391 -5.843,-4.342 -5.397,-6.287 0.449,-1.952 4.651,-2.997 4.651,-2.997 z"
   id="path703" />
	<path
   d="m 150.85,264.443 c 6.292,0.392 4.122,0.107 13.657,-0.573 9.337,-1.871 10.661,-0.263 23.525,-8.292 12.365,-8.431 3.95,-9.032 4.004,-9.032 -0.113,-0.139 -11.867,7.172 -21.574,12.424 -10.136,4.208 -3.157,1.051 -16.449,2.38 -13.347,-1.457 -9.547,1.715 -3.163,3.093 z"
   id="path705" />
	<path
   d="m 122.405,240.623 c 2.685,1.539 1.769,1.056 5.928,3.152 2.069,1.077 3.082,1.715 4.449,2.353 -0.906,0.472 0.89,2.482 3.88,4.47 5.602,2 3.736,0.986 12.687,2.198 9.192,0.632 8.619,3.248 23.375,2.669 15.206,-2.626 6.684,-6.85 7,-6.539 0,0.74 -12.156,0.75 -23.402,1.013 -9.391,0.745 -5.359,-0.027 -12.129,-1.062 -0.042,-0.278 -0.531,-0.648 -0.525,-0.643 -0.011,-0.011 -6.427,-1.887 -11.776,-3.645 -5.22,-2.101 -1.394,-0.708 -7.75,-3.913 -6.213,-3.51 -4.417,-1.645 -1.737,-0.053 z"
   id="path707" />
	<path
   d="m 228.929,276.985 c 1.576,6.566 -0.59,1.93 1.624,10.382 3.061,8.286 3.377,4.588 2.096,1.243 -0.9,-3.495 -1.168,-2.213 -1.747,-7.638 -0.273,-5.462 0.601,-5.489 0.069,-13.882 -0.504,-8.463 -2.884,-4.609 -2.878,-4.615 0.064,-0.01 -0.407,7.864 0.836,14.51 z"
   id="path709" />
	<path
   d="m 21.053,229.426 c -0.702,-0.011 -1.806,2.053 -1.093,4.443 1.951,4.396 1.646,2.616 5.708,8.753 5.108,5.88 0.793,7.257 11.438,16.305 3.623,2.219 7.515,0.831 8.501,-0.279 1.157,-1.174 1.168,-2.026 0.879,-2.589 -0.676,-1.088 -2.358,-1.592 -2.311,-1.619 -0.016,0.032 -2.09,1.034 -4.261,-0.59 -2.401,-1.581 -5.001,-5.574 -8.287,-8.865 -6.721,-6.137 -1.769,-2.728 -7.826,-10.613 -1.944,-3.75 -1.713,-4.881 -2.748,-4.946 z"
   id="path711" />
	<path
   d="m 25.025,179.005 c 1.511,2.203 3.366,4.91 5.194,7.434 4.32,5.521 -0.188,2.16 4.556,9.954 5.301,7.767 5.751,3.061 3.773,-0.15 -1.785,-3.36 -1.935,-1.806 -3.8,-7.338 -2.005,-5.472 0.075,-6.561 -5.682,-14.279 -2.868,-3.093 -4.588,-3.521 -5.633,-3.023 -1.442,-2.776 -3.956,-5.167 -8.002,-7.182 -5.526,12.146 -1.206,32.433 1.383,46.181 2.037,-7.767 4.953,-15.062 7.011,-23 0.717,-3.114 1.178,-5.976 1.2,-8.597 z"
   id="path713" />
	<path
   d="m 37.417,219.575 c 2.23,-0.74 4.459,-2.171 6.689,-3.339 -3.109,-3.682 -3.945,-13.073 -8.287,-15.045 -4.802,-2.401 -9.997,4.395 -11.197,8.791 -0.799,3.2 -1.19,11.996 0,15.587 2.004,5.193 7.992,5.596 12.397,9.594 -3.194,-3.2 -9.192,-9.187 -6.802,-13.593 2.006,-3.995 4,-1.202 7.2,-1.995 z"
   id="path715" />
	<path
   d="m 44.61,215.973 c -0.166,0.091 -0.333,0.177 -0.504,0.263 0.032,0.048 0.069,0.102 0.107,0.145 z"
   id="path717" />
	<path
   d="m 363.266,222.024 c -1.266,-3.511 -2.744,-6.362 -6.604,-7.536 -4.626,-0.424 -5.333,2.76 -5.703,3.403 -0.268,1.067 -0.183,1.64 0.021,1.94 0.885,0.895 3.843,-1.512 3.789,-0.927 0.172,0.102 0.504,-1.125 2.268,1.57 1.822,2.878 1.94,6.829 -1.152,11.91 -5.751,9.937 -15.271,22.892 -19.886,36.855 -7.482,27.813 -3.431,7.257 -13.218,41.942 -4.802,13.485 -10.869,14.257 -11.888,14.98 27.716,-78.475 15.2,-47.575 1.887,-9.975 -16.026,38.126 -2.455,28.221 -29.089,84.468 -9.24,12.585 -19.74,18.417 -28.574,23.375 -8.415,4.775 -15.104,9.856 -23.315,13.737 -0.193,0.017 -0.402,0.043 -0.59,0.043 -5.596,0 -13.989,1.598 -27.577,-3.194 -13.598,-4.798 -7.6,-5.199 -10.795,-1.603 -3.194,3.597 -35.971,-5.194 -43.968,-6.791 -7.992,-1.598 -17.977,-11.996 -22.785,-25.985 -4.786,-13.989 -8.388,-0.799 -8.79,3.998 -0.402,4.798 1.603,12.393 -19.58,-8.795 -21.188,-21.178 -48.771,-75.945 -48.771,-75.945 -0.852,18.384 1.404,31.924 5.676,42.825 -1.372,-1.752 -2.825,-3.591 -4.363,-5.547 -12.832,-12.815 -5.393,-24.441 -4.374,-31.549 1.839,-7.22 1.555,-10.265 1.131,-9.557 -0.477,0.638 -1.49,4.593 -3.484,9.905 -1.785,5.284 -4.824,12.445 -3.414,20.121 5.537,14.263 11.834,16.589 15.373,22.684 4.384,5.568 9.658,12.938 24.001,31.291 14.365,18.798 26.479,23.074 37.563,32.621 5.729,4.652 13.432,9.101 21.922,15.008 8.485,5.981 18.75,16.369 35.462,24.227 7.954,4.234 14.97,7.831 21.424,9.263 6.233,1.383 10.784,1.865 14.203,2.615 3.377,0.687 5.677,1.313 7.253,1.736 -0.06,1.266 -0.387,4.766 -2.091,10.988 -9.149,21.226 -19.087,35.901 -26.725,49.322 l -2.133,3.521 -0.525,-0.616 -1.844,-2.165 -7.188,-8.518 C 172.075,532.036 167.396,526.44 162.47,520.518 143.597,496.296 118.282,467.744 66.146,413.785 53.143,400.203 42.391,389.113 33.6,380.076 c -2.197,-2.267 -4.277,-4.395 -6.201,-6.405 -1.383,-1.447 -1.088,-1.066 -1.115,-1.543 -0.091,-0.938 -0.069,-2.059 0.038,-3.228 0.359,-4.599 1.292,-8.812 2.144,-12.322 3.195,-14.006 10.323,-15.994 10.458,-17.532 0.852,-1.158 -2.439,-0.375 -5.596,1.876 -3.222,2.091 -5.735,5.703 -5.741,5.687 -0.011,0.113 -4.711,8.057 -6.314,23.456 -0.081,0.985 -0.027,2.058 0.075,3.253 0.247,1.608 1.292,2.847 1.936,3.441 1.398,1.543 2.862,3.114 4.395,4.749 3.055,3.28 6.362,6.785 9.878,10.521 7.043,7.466 14.943,15.812 23.487,24.822 17.077,18.036 36.759,38.688 57.057,60.331 20.588,21.274 39.187,45.951 59.442,67.558 2.465,2.744 4.797,5.349 7.016,7.799 l 0.215,0.23 0.054,0.059 c -0.793,0.112 7.032,-0.687 3.741,-0.381 l 0.075,-0.139 0.306,-0.536 0.6,-1.057 1.179,-2.068 2.241,-3.972 c 2.895,-5.141 5.424,-9.696 7.659,-13.76 1.962,-3.563 3.688,-6.727 5.221,-9.589 -2.048,4.589 -4.448,9.632 -7.3,15.207 -0.976,1.913 21.182,12.392 23.187,13.587 1.999,1.206 3.592,19.591 3.592,19.591 l 58.761,0.392 -9.594,-23.573 c 0,0 1.195,0 1.195,-1.603 0,-0.396 -0.461,-2.911 -1.255,-6.571 0.729,0.177 1.57,0.386 2.557,0.638 0.06,-0.097 0.155,-0.23 0.166,-0.263 l 0.193,-0.321 c 0.804,-1.501 1.163,-2.756 1.469,-4.074 0.59,-2.61 0.724,-5.167 0.653,-7.724 -1.816,-20.314 -9.481,-34.046 -13.475,-46.251 -4.609,-11.958 -8.351,-21.22 -10.988,-28.21 -5.295,-13.014 -3.44,-19.349 -4.448,-17.655 -0.14,1.351 -1.281,9.272 3.108,20.304 3.726,11.138 9.225,25.577 14.644,40.768 5.44,15.089 8.361,25.669 7.799,34.347 -0.123,2.145 -0.466,4.159 -1.185,5.987 -0.349,0.252 -0.043,1.077 -0.825,0.991 -0.226,-1.019 -0.472,-2.096 -0.734,-3.227 l -0.129,-0.911 c -0.482,-3.554 -0.943,-6.957 -1.447,-10.612 -1.254,-6.926 -0.643,-16.777 -10.27,-25.326 -2.358,-1.828 -5.204,-3.543 -8.441,-5.113 -6.454,-4.229 -14.606,-7.129 -22.952,-7.129 -4.883,0 -7.89,0 -9.76,0 -0.295,-0.461 -0.842,-1.023 -1.464,-1.581 0.392,0.011 0.702,-0.011 0.794,0.011 -0.027,-0.011 3.301,-2.428 6.855,-7 3.768,-4.594 6.705,-11.422 9.074,-17.426 4.706,-12.301 2.562,-2.766 9.615,-17.929 1.973,-4.116 3.002,-6.786 3.398,-8.383 2.069,-2.198 2.948,-3.511 1.747,-2.852 -0.466,0.268 -1.062,0.611 -1.736,1.002 -0.021,-0.016 -0.048,-0.016 -0.075,-0.032 31.195,-18.197 33.05,-25.39 37.739,-31.142 2.311,-3.274 3.876,-7.916 7.236,-16.707 1.736,-4.443 4.202,-9.99 6.834,-17.559 2.787,-7.601 3.854,-17.538 6.989,-28.88 1.201,-3.377 2.326,-6.565 3.403,-9.61 0.027,0.054 0.064,0.112 0.14,0.183 0.381,1.051 7.928,-0.375 11.899,-7.429 6.593,-13.926 2.503,-9.9 10.537,-31.769 7.295,-22.512 8.651,-20.706 27.556,-52.206 2.16,-3.771 3.892,-9.41 2.354,-13.242 z M 90.47,407.961 c -1.34,-1.286 -2.455,-2.449 -3.436,-3.484 -1.484,-1.607 -2.567,-2.889 -3.462,-4.004 2.551,2.504 5.14,5.065 7.75,7.756 0.23,0.252 0.477,0.488 0.718,0.734 -0.557,-0.353 -1.088,-0.685 -1.57,-1.002 z m 146.252,41.905 c -5.756,8.876 -6.823,9.396 -14.862,22.731 -3.913,4.652 -5.141,7.215 -5.162,8.641 -0.676,-0.472 -1.18,-0.772 -1.223,-0.719 0.021,-0.016 -4.105,-1.693 -11.186,-3.179 -7.215,-1.179 -16.145,-4.502 -26.569,-10.645 -7.445,-3.474 -14.483,-8.195 -21.794,-13.641 10.667,6.057 18.127,9.942 18.127,9.942 0,0 4.395,-4.4 15.592,-4.4 11.197,0 16.386,0.793 16.386,0.793 l -11.187,-5.987 c 0,0 23.171,-1.206 33.563,-5.601 4.594,-1.946 10.12,-6.143 14.548,-10.056 -2.138,4.38 -1.205,3.812 -6.233,12.121 z m 10.329,-18.519 c -0.284,0.166 -0.579,0.332 -0.879,0.504 0.241,-0.161 0.482,-0.316 0.718,-0.478 0.112,-0.069 0.22,-0.134 0.333,-0.198 -0.054,0.054 -0.114,0.118 -0.172,0.172 z"
   id="path719" />
	<path
   d="m 269.707,375.432 c 0,0.048 -0.702,2.996 -0.707,5.51 -0.226,2.498 -0.638,0.616 -1.651,3.441 -1.254,2.642 0.407,2.572 1.19,1.28 0.734,-1.249 0.235,-0.89 1.351,-2.835 1.152,-1.973 2.005,-1.876 2.38,-5.51 0.053,-3.709 -2.563,-1.833 -2.563,-1.886 z"
   id="path721" />
	<path
   d="m 110.13,359.882 c 1.394,-1.816 0.675,-1.351 2.878,-4.03 2.235,-2.681 3.018,-2.289 5.451,-7.198 2.203,-5.05 -1.195,-3.752 -1.179,-3.779 -0.011,0.027 -2.583,4.197 -4.117,8.034 -1.694,3.763 -0.997,0.751 -3.752,5.141 -2.898,4.266 -0.701,3.655 0.719,1.832 z"
   id="path723" />
	<path
   d="m 298.415,316.703 c 2.401,1.592 2.401,-0.402 3.2,-2.396 h -0.396 c -1.201,0.793 -2.397,1.195 -2.804,2.396 z"
   id="path725" />
	<path
   d="m 140.21,239.112 c -10.382,-4.877 -6.989,-2.492 -2.573,-0.29 4.449,2.09 2.991,1.324 9.712,4.411 6.904,2.471 6.689,3.806 18.39,4.669 11.733,-0.799 6.405,-1.914 6.464,-1.774 0.021,0.166 -10.597,1.109 -19.221,-1.672 -8.521,-2.745 -2.293,-0.831 -12.772,-5.344 z"
   id="path727" />
	<path
   d="m 278.299,270.087 c 9.22,0.413 5.901,-0.536 2,-0.675 -3.87,-0.413 -2.638,0.118 -8.383,-1.083 -5.617,-1.629 -5.65,-1.688 -13.792,-5.435 -5.601,-3.136 -5.815,-2.541 -5.483,-1.919 -1.023,-0.857 -2.202,-1.833 -3.645,-2.991 -8.801,-7.493 -6.699,-2.3 -6.689,-2.284 0.032,-0.096 7.504,7.879 15.636,12.478 8.441,3.924 1.452,2.541 13.132,6.319 12.74,0.311 7.627,-1.581 2.787,-1.259 -4.835,-0.943 -3.543,0.043 -10.168,-3.355 -4.689,-3.082 -5.591,-4.208 -9.541,-7.617 2.315,1.453 7.729,4.535 13.138,5.73 7.111,1.287 1.821,1.003 11.008,2.091 z"
   id="path729" />
	<path
   d="m 287.637,278.99 c 0,-0.027 3.151,3.195 6.587,4.926 3.517,1.479 0.687,0.943 5.36,2.573 4.888,1.019 3.184,-0.171 1.2,-0.52 -1.924,-0.638 -1.415,-0.107 -4.122,-1.549 -2.578,-1.667 -2.363,-1.967 -6.11,-4.76 -3.682,-2.943 -2.915,-0.686 -2.915,-0.67 z"
   id="path731" />
	<path
   d="m 301.428,279.022 c 2.653,0.477 1.629,-0.456 0.686,-0.697 -0.943,-0.3 -0.766,0.161 -1.994,-0.798 -1.232,-0.869 -0.879,-1.362 -3.001,-2.541 -2.272,-1.125 -1.694,0.601 -1.726,0.584 0.021,0.016 1.683,1.206 3.355,2.026 1.859,0.574 0.225,0.649 2.68,1.426 z"
   id="path733" />
	<path
   d="m 120.877,251.938 c -0.005,0 6.941,1.807 12.971,2.46 6.036,0.509 1.582,0.579 9.273,1.394 7.691,0.686 4.984,-0.3 1.715,-0.659 -3.27,-0.392 -2.213,0.016 -7.08,-0.906 -4.862,-0.906 -4.792,-1.362 -12.339,-2.718 -7.515,-1.468 -4.545,0.429 -4.54,0.429 z"
   id="path735" />
	<path
   d="m 304.949,216.327 c 2.626,2.326 2.268,1.115 1.131,-0.156 -1.292,-1.007 -0.857,-0.665 -2.959,-1.988 -2.187,-1.19 -2.225,-1.485 -5.746,-2.728 -3.344,-1.474 -2.514,0.268 -2.497,0.3 -0.07,0.081 3.264,1.876 6.233,2.391 2.793,0.851 0.799,0.369 3.838,2.181 z"
   id="path737" />
	<path
   d="m 284.549,207.75 c -2.031,-0.579 -2.096,-1.04 -5.392,-1.013 -3.206,0.026 -1.828,1.302 -1.817,1.313 0,0.043 3.082,0.247 5.531,0.145 2.412,0.161 0.74,0.183 3.441,1.179 2.311,1.549 2.042,0.595 0.976,-0.402 -1.212,-0.664 -0.794,-0.407 -2.739,-1.222 z"
   id="path739" />
	<path
   d="m 298.951,216.075 c -0.761,-0.536 -0.648,-0.97 -1.865,-1.447 -1.228,-0.482 -1.195,0.933 -1.18,0.933 -0.016,0 1.094,0.831 2.203,0.959 1.088,0.091 0.193,0.364 1.496,0.756 1.291,0.38 1.061,-0.456 0.525,-0.691 -0.541,-0.248 -0.418,0.026 -1.179,-0.51 z"
   id="path741" />
	<path
   d="m 32.754,277.956 c 5.698,2.733 8.324,2.766 9.063,2.406 1.313,-0.788 -3.896,-4.422 -3.805,-4.507 1.244,-0.439 -15.914,-4.492 -16.482,-24.956 -1.672,-9.745 -3.881,-20.979 -6.073,-32.642 l 1.972,-4.277 c -0.188,-1.067 -0.396,-2.203 -0.616,-3.377 -0.601,2.257 -1.094,4.567 -1.496,6.925 -2.085,-11.084 -4.143,-22.544 -5.698,-33.457 -1.415,-11.245 0.043,-17.843 2.396,-19.96 2.305,-1.908 4.052,-1.238 6.695,-1.377 1.222,0.032 2.589,-0.075 4.449,-0.236 0.949,-0.167 1.946,-0.247 3.302,-0.675 3.28,4.717 8.244,11.609 13.277,23.97 5.387,13.62 8.222,22.769 8.045,27.77 -0.15,4.818 -1.592,4.566 -1.002,5.038 0.337,0.263 2.894,-0.943 3.2,-5.671 0.354,-4.459 -0.879,-10.516 -2.857,-16.498 -4.074,-11.974 -5.88,-15.795 -8.544,-20.931 -1.308,-2.583 -2.948,-5.429 -5.542,-9.643 -1.066,-1.619 -2.268,-3.462 -3.714,-5.521 0.252,-0.225 0.718,-0.643 1.131,-1.694 l 0.155,-0.804 c 0.354,-0.14 -0.343,0.064 -1.404,0.391 0.9,-4.197 1.817,-11.331 2.01,-11.283 0.198,0.054 0.659,-9.128 5.574,-23.905 4.658,-14.847 14.354,-34.797 28.033,-56.944 6.458,-11.444 14.67,-22.324 25.916,-31.292 11.224,-9.273 25.218,-13.443 40.682,-17.249 15.088,-4.395 30.016,-7.943 45.828,-5.853 15.914,0.959 31.741,1.57 47.076,3.13 30.713,3.173 47.088,10.001 57.057,15.051 9.884,5.371 14.215,8.372 18.867,12.403 4.669,4.031 10.26,8.758 19.966,20.732 8.694,12.162 25.133,31.436 33.286,69.138 2.471,18.369 1.345,35.944 1.672,48.851 0.343,13.319 -3.114,22.49 -5.124,30.514 -0.166,0.638 -0.338,1.254 -0.488,1.865 0.462,-6.78 -0.927,-15.265 -0.718,-20.695 0.295,-8.994 3.902,-17.388 3.597,-26.682 -0.306,1.201 -0.601,2.701 -0.906,4.197 -0.289,-2.09 -0.595,-3.892 -1.195,-5.993 0,3.602 -0.595,7.494 -0.595,11.09 -0.605,-1.201 -1.807,-3.296 -2.401,-4.497 -0.188,0.375 -0.375,0.885 -0.568,1.42 -0.45,-1.34 -0.546,-1.42 -1.629,-4.904 -1.346,-4.395 -0.976,-4.556 -3.747,-11.154 -0.515,-1.163 -0.922,-2.005 -1.27,-2.61 0.085,-0.439 0.171,-0.869 0.252,-1.297 0.128,0.29 0.235,0.579 0.364,0.858 -0.07,-0.509 -0.146,-1.04 -0.23,-1.565 0.134,-0.708 0.257,-1.404 0.364,-2.09 1.935,3.505 3.87,7.097 5.811,10.564 0.358,2.032 0.879,3.929 1.854,5.387 -0.606,-3.602 -1.501,-7.499 -1.796,-11.095 0.295,1.201 0.895,2.096 1.495,3.296 0,-2.701 -0.601,-5.998 -0.9,-8.988 0.3,0.9 0.9,1.5 1.201,2.396 -0.21,-0.767 -0.376,-1.56 -0.531,-2.38 0.198,0.016 0.145,-2.396 -0.032,-5.065 -0.745,-4.974 -0.504,-3.307 -1.881,-10.757 -0.279,-1.056 -0.493,-1.951 -0.687,-2.771 -0.106,-0.729 -0.273,-1.501 -0.509,-2.305 -0.734,-3.333 -1.367,-5.751 -5.022,-13.346 -2.862,-4.877 -4.052,-6.26 -4.502,-6.389 -0.445,-0.771 -0.869,-1.527 -1.223,-2.251 0.595,0.3 0.89,0.595 1.19,0.9 -0.911,-1.651 -2.16,-3.178 -3.334,-4.738 -0.863,-1.05 -1.727,-2.117 -2.595,-3.184 -1.04,-3.001 -2.492,-6.062 -4.668,-9.053 -0.14,-0.214 -0.295,-0.429 -0.435,-0.638 0.536,0.574 1.126,1.179 1.747,1.812 4.374,4.342 3.206,2.6 9.595,9.316 3.291,3.28 4.4,5.371 6.223,7.665 1.233,2.53 5.333,4.894 6.127,11.481 2.423,14.692 3.42,7.611 2.792,7.858 -0.016,0.011 -1.206,-3.098 -1.34,-7.826 0.269,-5.478 -5.022,-9.996 -8.415,-14.316 -7.825,-8.238 -1.736,-2.696 -12.193,-12.649 -3.742,-3.607 -5.703,-5.365 -6.48,-5.95 -0.027,-0.032 -0.06,-0.07 -0.086,-0.107 -1.721,-4.02 -6.11,-13.245 -8.817,-13.245 -0.862,-3.179 -0.595,-5.242 1.555,-7.799 -0.021,0.005 -0.032,0.005 -0.054,0.005 0,-0.6 -5.998,-7.499 -7.499,-9.299 -2.096,0.3 -6.893,-0.295 -9.288,-1.201 -2.401,-0.595 -5.998,-3.296 -7.794,-4.191 0,0 -1.801,0.3 -3.001,-0.306 -1.195,-0.595 -2.391,-2.991 -3.297,-3.897 1.501,3.302 3.896,5.698 6.599,8.394 -0.301,-0.89 -0.301,-1.496 -0.601,-2.391 1.544,1.769 2.97,3.752 4.385,5.783 -2.358,-0.868 -4.803,-1.313 -7.247,-1.232 -6.084,0.509 -10.345,4.534 -14.783,6.635 -8.935,4.792 -18.191,4.711 -26.456,3.822 -16.681,-1.999 -30.45,-7.327 -46.364,-11.465 -7.547,-1.994 -14.686,-7.67 -25.679,-8.549 -10.886,-0.37 -20.513,5.623 -31.651,4.218 -5.676,-0.193 -13.153,-1.967 -20.652,2.208 -6.941,4.224 -11.379,9.884 -16.037,17.013 -2.09,3.575 -3.8,7.354 -5.44,11.245 l -2.38,5.88 c -0.799,3.907 -0.542,5.156 -0.676,7.75 0,5.017 0.241,8.024 -1.924,11.722 -1.892,3.747 -4.797,7.439 -7.879,11.384 -2.305,2.729 -4.234,5.51 -5.896,8.287 -2.707,2.176 -6.866,5.971 -9.594,10.307 -2.198,3.667 -2.541,3.827 -3.109,4.583 0.086,-0.772 0.14,-1.554 0.14,-2.358 -2.091,2.096 -3.892,4.497 -4.486,7.493 0,-0.6 -0.3,-1.201 -0.3,-1.801 -0.606,1.201 -1.201,2.401 -1.5,3.896 0.557,-2.08 1.007,-4.502 0.964,-6.775 2.198,-3.136 1.415,-2.487 5.628,-7.895 4.722,-5.559 4.513,-5.917 11.449,-14.654 7.986,-7.327 4.298,-4.915 3.972,-5.194 -0.542,-0.686 -8.42,6.968 -12.65,14.863 -4.856,7.386 -1.854,1.678 -8.2,11.116 -0.102,0.14 -0.193,0.268 -0.295,0.408 -0.102,-0.836 -0.279,-1.629 -0.568,-2.358 -0.976,1.179 -1.978,2.53 -2.873,3.956 0.118,-0.316 0.23,-0.622 0.343,-0.938 -2.015,3.194 -3.688,7.161 -4.074,10.168 0,-1.501 -0.289,-2.991 -0.595,-4.191 -2.996,4.497 -6.298,9.889 -8.094,14.986 0,-0.595 -0.3,-1.501 -0.3,-2.096 -0.595,9.889 -1.796,19.483 -1.796,29.373 l 1.19,-4.175 c -0.005,-1.265 -0.021,-2.546 -0.059,-3.838 0.214,2.176 0.595,4.341 1.26,6.518 2.106,-3.001 1.501,-6.593 2.106,-9.895 2.696,4.803 2.396,11.996 4.197,17.393 0,-2.61 0,-5.408 0,-8.093 2.09,-4.202 2.696,-10.8 2.696,-15.292 0,1.201 0.595,2.09 0.896,2.996 2.701,-3.296 3.902,-8.099 5.697,-11.39 2.648,-4.191 5.612,-8.222 8.078,-12.569 -1.56,4.915 -3.087,9.326 -5.317,12.891 -2.959,5.944 -5.633,11.663 -7.043,17.313 -1.19,5.548 -1.415,10.173 -2.08,13.936 -0.531,3.104 -1.222,5.682 -2.112,7.793 -0.054,-0.027 -0.102,-0.054 -0.15,-0.081 -0.729,-0.461 -1.27,-1.023 -1.715,-1.592 -1.619,-2.498 -1.748,-4.604 -2.149,-5.194 -0.504,-1.399 -1.844,2.117 -0.407,6.218 0.723,2.031 2.53,3.73 4.073,4.54 l 1.077,0.563 0.059,0.038 c 0.713,-0.263 -1.586,0.595 1.603,-0.59 v -0.011 l 0.011,-0.005 0.016,-0.026 0.07,-0.107 0.118,-0.193 0.215,-0.343 c 0.257,-0.418 0.402,-0.654 0.402,-0.654 0.767,0.413 3.666,-9.616 6.137,-24.618 2.165,-7.338 7.729,-15.33 11.658,-25.91 3.79,-10.415 6.518,-22.308 15.04,-32.122 3.961,-5.183 8.833,-10.5 11.304,-18.053 1.769,-8.892 -1.04,-13.882 3.222,-20.979 2.782,-6.898 6.094,-13.132 11.084,-18.717 4.996,-5.853 10.543,-9.675 18.235,-8.865 7.327,0.648 16.739,1.131 24.425,-1.565 7.917,-2.219 15.008,-3.967 22.153,-1.137 14.499,6.566 30.986,9.836 46.069,13.775 15.458,3.403 28.45,4.599 38.64,1.458 10.045,-3.184 15.593,-9.343 20.438,-9.669 4.728,-0.021 8.147,1.109 10.865,2.755 1.441,2.026 2.942,4.02 4.609,5.794 0,-0.595 0.289,-1.185 0.295,-1.774 0.026,0.032 0.059,0.059 0.086,0.086 3.044,3.891 6.1,9.01 9.856,12.338 1.882,2.482 4.052,5.328 6.614,8.592 -0.021,-0.021 -0.043,-0.043 -0.059,-0.054 0.595,1.795 1.49,3.296 2.391,4.786 v 0.906 c 3.623,2.224 6.206,12.494 7.756,17.532 0.664,3.093 1.409,6.48 2.385,10.259 2.111,6.502 5.757,13.052 6.588,20.095 0.005,0.016 0.005,0.032 0.016,0.054 0.016,0.407 0.037,0.809 0.037,1.216 -0.589,-1.189 -1.195,-2.39 -1.495,-3.591 0.644,2.053 1.12,4.159 1.624,6.25 -0.349,6.218 -3.211,13.298 -3.296,22.662 0.729,9.187 1.179,17.624 1.42,25.374 -0.214,-0.515 -0.429,-1.093 -0.644,-1.528 -0.305,7.199 0.301,14.987 0.301,21.89 0,6.288 -1.796,12.591 -1.796,19.184 l 1.796,-9.589 c 0,-1.807 -0.301,-3.902 0,-5.703 0.145,0.557 0.263,1.125 0.349,1.699 -0.344,10.178 -1.072,18.588 -1.94,25.401 -0.788,0.638 -1.812,1.844 -4.17,6.903 -3.495,12.183 1.045,7.997 2.154,3.436 0.321,-0.67 0.547,-1.201 0.729,-1.662 -2.213,12.81 -4.427,17.227 -2.979,16.08 1.125,-1.104 3.634,-9.492 5.874,-21.97 0.365,-0.499 0.783,-1.067 1.292,-1.726 4.733,-5.676 6.427,-4.218 12.634,-14.199 4.041,-7.847 1.249,-8.511 -0.536,-8.302 0.611,-3.618 1.608,-8.035 3.339,-12.928 4.798,-11.567 6.304,-27.701 5.66,-44.724 1.019,-33.95 -3.886,-44.879 -9.197,-59.276 C 346.11,98.901 342.524,90.818 335.637,79.53 328.557,68.52 318.92,53.159 298.756,37.422 277.959,22.521 258.851,17.236 242.482,13.817 225.941,10.51 211.41,9.224 195.212,7.932 187.108,7.278 178.569,6.699 169.141,5.852 159.027,5.257 148.387,7.181 136.724,10.193 125.49,13.688 111.865,15.28 97.527,23.239 83.411,30.941 70.51,44.443 60.562,61.917 c -20.941,33.811 -29.63,58.874 -32.111,74.911 -1.93,11.717 -1.549,18.401 -1.051,21.697 -2.133,0.037 -6.544,1.758 -10.506,1.415 -5.135,-0.627 -8.844,3.666 -9.75,7.348 -1.222,3.726 -1.415,7.188 -1.554,10.377 -0.161,6.4 0.278,11.878 0.89,17.972 1.372,12.183 3.623,26.811 9.251,55.888 0.761,3.72 1.271,6.77 2.139,10.125 0.986,3.597 2.782,6.459 4.652,8.544 3.762,4.245 7.445,6.309 10.232,7.762 z M 72.943,147.167 c -2.953,1.131 -5.772,3.591 -7.386,6.561 1.062,-3.404 2.257,-6.512 2.878,-9.846 0.322,-0.536 0.697,-1.142 1.158,-1.881 3.65,-4.856 3.859,-5.231 9.723,-11.101 -2.857,5.584 -4.738,11.121 -6.373,16.267 z m 266.733,8.613 c 0.9,2.273 2.241,5.553 3.564,8.463 1.979,4.658 0.676,2.139 2.171,6.577 -0.418,-1.034 -0.81,-2.031 -1.297,-2.862 -0.466,-1.527 -1.163,-3.403 -2.643,-6.855 -0.965,-2.032 -1.635,-3.184 -2.096,-3.822 0.098,-0.498 0.199,-1.002 0.301,-1.501 z m -1.399,8.415 c 0.188,-1.779 0.455,-3.462 0.745,-5.076 0.997,2.321 2.927,6.823 4.631,10.859 -0.3,2.653 -0.037,5.376 -0.515,7.724 -0.295,-0.6 -1.2,-1.501 -1.49,-2.096 -0.605,4.797 3.291,10.795 1.791,15.292 -0.896,-1.795 -1.501,-3.902 -2.396,-5.403 -0.155,0.938 -0.23,1.962 -0.306,2.98 -0.021,-0.085 -0.037,-0.161 -0.054,-0.252 -0.873,-4.449 -0.547,-4.561 -1.747,-11.411 -0.054,-0.461 -0.107,-0.863 -0.166,-1.238 -0.482,-4.201 -0.814,-7.932 -0.493,-11.379 z m 2.198,26.79 c -0.016,0.064 -0.016,0.15 -0.026,0.209 -0.069,-0.097 -0.118,-0.204 -0.183,-0.311 -0.011,-0.333 -0.026,-0.67 -0.043,-1.002 0.064,0.294 0.144,0.648 0.252,1.104 z m 7.284,32.995 c -1.437,2.214 -6.126,8.764 -9.776,15.233 -0.392,0.842 -0.729,1.517 -1.034,2.075 0.396,-2.525 0.767,-5.194 1.12,-7.938 0.67,-2.455 1.185,-3.227 1.747,-5.247 0.123,0.193 0.236,0.38 0.333,0.568 0.895,-2.406 0.595,-5.692 1.5,-8.099 2.696,5.097 3.597,5.692 5.098,0 0.295,0 0.595,0.3 0.895,0.3 0.242,-0.386 0.451,-0.804 0.639,-1.238 -0.254,1.592 -0.426,3.039 -0.522,4.346 z"
   id="path743" />
	<path
   d="m 49.992,269.133 c 0.814,-3.591 -0.027,-2.385 1.399,-7.857 1.034,-5.532 2.889,-5.816 2.106,-14.537 -0.879,-8.581 -5.66,-4.197 -5.649,-4.197 -0.048,0.016 -0.509,8.147 0.777,14.563 0.948,6.443 -0.81,1.962 -1.56,9.696 -1.694,7.124 1.431,5.875 2.927,2.332 z"
   id="path745" />
	<path
   d="m 103.061,341.782 c -0.054,-0.102 3.629,-12.644 8.233,-22.641 4.867,-9.979 2.16,-2.229 10.345,-13.625 8.935,-10.977 3.629,-9.005 -0.659,-4.433 -3.999,4.766 -2.198,3.468 -8.404,10.527 -5.548,7.509 -7.938,6.507 -12.757,20.957 -3.389,14.881 3.375,9.107 3.242,9.215 z"
   id="path747" />
	<path
   d="m 86.579,261.715 c -8.715,-9.583 -8.892,-2.187 -8.876,-2.08 -0.081,-0.091 7.075,11.042 17.023,16.31 10.083,4.433 1.673,3.2 15.18,8.099 14.14,2.964 9.23,-1.287 3.666,-2.375 -5.413,-1.924 -4.111,-0.107 -11.577,-4.668 -6.883,-5.328 -6.1,-6.389 -15.416,-15.286 z"
   id="path749" />
	<path
   d="m 314.388,283.412 c -0.857,0.091 -2.214,2.026 -3.741,3.682 -3.227,3.076 -1.57,2.985 -7.793,5.729 -6.438,2.257 -7.049,0.525 -16.718,4.353 -10.028,4.116 -3.297,7.118 -3.382,7.032 -0.129,-0.183 9.454,-2.026 16.728,-6.513 6.963,-5.097 2.771,0.734 11.97,-6.598 4.447,-4.662 3.611,-8.06 2.936,-7.685 z"
   id="path751" />
	<path
   d="m 226.372,339.884 c -0.295,0.9 -5.987,-2.401 -8.989,-3.296 -3.001,-0.896 -7.793,1.495 -9.294,3.597 -1.501,2.101 -5.402,-2.396 -7.192,-4.798 -1.807,-2.396 -12.896,-7.498 -12.896,-7.498 -1.479,-0.177 -5.242,-0.177 -7.777,0.16 -0.22,-0.149 -0.461,-0.289 -0.697,-0.412 -2.053,-2.123 -1.994,-1.099 -3.661,-5.28 -0.874,-4.282 -0.66,-4.722 0.053,-10.714 2.203,-4.835 -0.096,-4.454 -0.584,-4.433 -0.558,-0.553 -4.519,6.512 -1.946,12.242 2.583,5.204 -0.75,1.961 3.833,8.329 0.402,0.257 0.766,0.477 1.109,0.686 -0.423,0.167 -0.632,0.381 -0.525,0.622 0.59,1.313 11.696,8.094 17.693,8.094 5.993,0 4.792,5.998 5.993,11.095 1.195,5.093 1.801,10.195 3.602,11.985 1.796,1.807 5.992,-5.092 9.89,-8.688 3.901,-3.597 6.292,-5.998 11.095,-7.488 4.792,-1.501 8.088,-1.801 11.985,-4.502 2.176,-1.501 1.275,-2.627 0.048,-3.216 0.896,-0.772 1.753,-1.694 4.342,-4.787 3.259,-6.158 3.843,-7.782 0.498,-18.277 -2.225,-10.076 -3.403,-5.815 -3.752,-5.628 0,-0.026 -0.155,2.804 0.954,6.438 0.965,3.629 2.873,8.008 2.615,12.022 -0.294,4.004 -1.237,4.363 -1.715,4.963 -0.643,0.563 -1.082,1.464 -4.995,4.873 -0.086,0.026 -0.145,0.059 -0.145,0.117 -0.135,0.107 -0.247,0.209 -0.376,0.306 -1.71,0.895 -8.903,2.689 -9.166,3.488 z"
   id="path753" />
	<path
   d="m 114.761,220.368 c -2.208,0.605 -7,1.999 -7,1.999 0,0 9.594,1.608 11.792,1.608 2.198,0 7.793,1.394 9.396,1.394 1.592,0 3.194,1.399 4.797,1.801 1.597,0.396 3.794,1.795 3.794,1.795 0,0 0.14,-4.803 0.547,-6.325 1.019,-0.214 2.123,-0.413 3.291,-0.59 -0.456,1.817 -0.836,4.867 0.558,7.912 2.203,4.802 6.395,5.998 11.385,5.199 5.006,-0.793 6.802,-3.398 8.399,-6.395 0.911,-1.699 1.42,-2.728 1.699,-3.329 4.947,1.769 2.696,1.297 8.625,4.625 0.52,1.276 2.433,6.202 0.874,6.898 -1.415,0.632 5.328,-0.477 8.271,-0.976 2.063,2.241 5.708,3.393 7.118,2.97 1.994,-0.595 3.789,-3.591 5.397,-5.993 0.139,-0.225 0.236,-0.499 0.311,-0.81 2.798,1.447 6.003,1.013 8.979,1.013 4.496,0 6.598,0.9 7.799,-3.602 1.109,-4.084 -1.104,-9.203 -3.394,-14.081 1.013,-3.425 0.981,-7.155 -0.81,-11.1 -0.563,-1.308 -1.329,-2.466 -2.219,-3.527 0.284,-0.568 0.504,-1.249 0.499,-1.973 -0.295,-1.748 0.461,-0.477 0.032,-2.782 -0.837,-2.278 -1.158,-1.024 -0.938,-0.198 0.204,0.857 0.482,0.525 0.226,1.887 -0.167,0.954 -0.482,1.185 -0.896,1.897 -1.764,-1.726 -3.935,-3.087 -6.309,-4.17 -0.032,-0.053 -0.054,-0.107 -0.091,-0.161 -1.051,-1.211 0.059,-0.558 -1.11,-2.219 -1.249,-1.576 -1.356,-0.525 -0.911,0.161 0.439,0.713 0.509,0.332 0.917,1.554 0.027,0.054 0.032,0.107 0.054,0.161 -4.776,-1.935 -10.211,-2.771 -14.735,-2.916 -2.069,-0.107 -4.191,-0.236 -6.346,-0.365 -0.059,-0.193 -0.161,-0.354 -0.161,-0.354 -0.016,0 -2.31,-0.777 -4.363,-1.228 -2.123,-0.391 -0.44,-0.488 -3.104,-1.211 -2.729,-0.648 -1.865,0.316 -0.767,0.654 1.099,0.359 0.804,0 2.38,0.799 0.857,0.418 1.206,0.75 1.769,1.078 -8.731,-0.52 -17.8,-1.002 -26.285,-0.574 -6.292,0.595 -32.969,4.792 -24.875,13.486 3.591,3.902 4.497,1.5 8.989,0.3 4.802,-1.201 9.294,0.9 14.091,0.9 l -0.3,-0.3 c 1.201,0.9 1.801,0.6 3.296,0.9 4.025,1.008 8.33,1.34 12.623,1.715 -0.777,0.021 -1.683,0.042 -2.782,0.053 -7.933,0.691 -8.78,-1.586 -20.625,3.886 -2.637,1.238 -4.331,2.149 -5.392,2.841 -1.973,0.102 -5.076,0.102 -5.698,0.102 -0.804,0 -2.004,-2.004 -6.202,-1.801 -4.197,0.198 -10.993,1.994 -7.793,3.993 3.194,2.006 7.396,2.804 5.198,3.399 z m 40.318,12.95 c -3.141,1.345 -8.389,0.595 -10.784,-1.807 -2.401,-2.391 -1.951,-6.737 -1.951,-6.737 l 4.942,0.45 c 0,0 0.3,7.193 6.748,2.991 1.924,-1.243 0.3,-2.846 0.75,-2.846 0.45,0 5.392,2.702 5.392,2.702 0,0 -1.946,3.89 -5.097,5.247 z m -5.869,-23.263 c 5.896,-1.029 5.606,-0.788 7.306,-0.627 -3.961,0.396 -7.772,0.906 -10.784,1.356 1.157,-0.3 2.326,-0.557 3.478,-0.729 z m -19.06,8.115 c 0.113,-0.413 0.322,-0.917 0.515,-1.41 2.358,-0.959 6.989,-3.372 12.14,-5.092 4.711,-0.156 13.121,-0.37 15.522,-0.091 3.393,0.396 3.795,2.401 11.985,8.592 7.52,5.698 9.149,11.363 9.364,12.258 -4.347,-2.605 -3.403,-2.144 -12.14,-6.689 -4.877,-2.407 -7.413,-3.548 -10.613,-4.985 -3.393,-1.051 -7.531,-3.259 -16.702,-1.581 -8.308,2.707 -9.862,2.69 -10.393,3.43 0,0.001 -0.08,-3.027 0.322,-4.432 z"
   id="path755" />
	<path
   d="m 238.523,254.961 c 0.063,0.472 0.117,0.906 0.145,1.308 0,-0.579 -0.027,-1.147 -0.145,-1.308 z"
   id="path757" />
	<path
   d="m 280.234,260.938 c -10.394,2.005 -18.385,-1.795 -18.385,-1.795 12.193,9.996 29.973,-0.595 29.973,-0.595 0,0 -1.195,0.396 -11.588,2.39 z"
   id="path759" />
	<path
   d="m 130.948,229.764 c 0.397,0.605 23.38,17.586 37.166,12.794 0,0 -19.981,-1.597 -28.574,-7.193 -8.592,-5.601 -8.999,-6.196 -8.592,-5.601 z"
   id="path761" />
	<path
   d="m 251.119,393.249 c 4.786,5.392 1.49,9.889 5.692,6.292 4.191,-3.597 1.2,-13.19 0,-15.286 -1.201,-2.102 -9.3,-2.701 -12.892,-1.501 -1.227,0.407 -3.296,0.708 -5.579,0.928 -0.933,-0.702 -4.39,-2.289 -8.201,-3.693 -4.368,-1.608 -5.815,-2.214 -7.675,-3.28 -0.971,-0.472 -1.908,-1.297 -3.355,-2.386 -1.147,-1.179 -3.827,-3.146 -6.883,-0.638 -6.447,3.688 -9.883,0.976 -11.974,-2.664 -1.275,-1.597 -2.675,-4.614 -7,-5.387 -3.329,-0.289 -7.563,-0.589 -13.084,-0.096 -21.879,3.076 -11.846,4.582 -11.953,4.368 0,0 4.958,-0.885 12.033,-1.475 3.559,-0.22 7.6,-0.343 11.771,-0.005 4.122,-0.349 5.585,4.229 9.487,7.161 4.438,2.947 7.568,0.648 8.94,0.45 1.576,-0.681 2.24,-1.04 3.061,-1.432 0.788,-0.263 1.603,-1.008 2.541,-0.461 1.217,0.284 3.698,3.463 9.085,5.698 6.276,2.288 9.991,3.483 11.872,3.961 -4.121,0.343 -8.501,0.45 -9.572,0.45 0,0 0.053,0.011 0.134,0.021 -3.189,-0.252 -7.198,-0.814 -17.554,-2.643 -10.495,-1.495 -14.869,-3.886 -21.124,-6.668 -6.764,-2.391 -14.542,-3.061 -30.514,-6.362 -1.474,-0.504 -2.911,-0.814 -4.272,-0.986 -2.08,-1.066 -4.357,-1.838 -4.92,-1.656 -1.795,0.605 -10.784,-2.996 -15.281,-4.497 -4.502,-1.49 -2.401,2.702 -3.597,7.198 -1.201,4.497 -9.895,7.499 -14.091,13.191 -4.197,5.703 26.655,-10.366 28.177,-10.194 8.625,0.997 12.253,0.632 13.196,-0.258 10.329,2.884 24.747,3.013 36.19,7.9 12.585,3.892 14.317,2.847 16.852,3.913 2.519,0.509 5.981,1.753 22.228,3.087 1.475,0.156 2.841,0.236 4.154,0.29 5.435,1.583 11.632,3.883 14.108,6.66 z"
   id="path763" />
	<path
   d="m 75.151,84.777 c 0.595,-0.675 1.271,-1.292 1.994,-1.881 -0.74,0.525 -1.42,1.13 -1.994,1.881 z"
   id="path765" />
	<path
   d="m 84.065,91.589 2.471,-1.115 c -0.858,0.226 -1.673,0.611 -2.471,1.115 z"
   id="path767" />
	<path
   d="m 88.932,105.161 c -3.896,5.097 -10.489,7.488 -14.386,12.596 -2.439,3.366 -5.339,7.563 -7.542,11.846 6.861,-8.609 16.166,-14.757 21.928,-24.442 z"
   id="path769" />
	<path
   d="m 64.056,137.235 c 0.557,-2.471 1.624,-5.07 2.948,-7.632 -2.053,2.573 -3.896,5.36 -5.349,8.533 -0.429,1.19 -0.868,2.401 -1.329,3.618 1.195,-1.898 2.503,-3.511 3.73,-4.519 z"
   id="path771" />
	<path
   d="m 46.668,185.796 -0.011,0.021 c 0.011,0.997 0.011,1.994 0.011,2.98 0,-0.894 0,-2.1 0,-3.001 z"
   id="path773" />
	<path
   d="m 47.858,109.058 c 2.407,-6.298 7.504,-11.39 8.999,-18.283 -6.298,4.492 -12.891,18.283 -15.292,25.481 -1.791,5.098 -2.991,10.189 -4.492,15.287 -0.214,0.745 -0.386,1.555 -0.552,2.401 -0.016,-0.102 -0.027,-0.204 -0.054,-0.306 -0.514,2.166 -0.884,4.444 -1.233,6.775 -0.241,0.729 -0.482,1.468 -0.713,2.197 -0.418,1.024 -0.948,1.957 -1.646,2.718 l 0.295,1.801 c 0.016,-0.011 0.032,-0.021 0.043,-0.038 -0.906,3.377 -1.64,6.78 -2.139,10.227 1.721,-3.447 2.621,-7.311 3.286,-11.224 3.366,-3.607 4.99,-11.979 6.604,-15.753 1.512,-3.468 2.868,-6.796 3.999,-10.157 0.386,-2.578 1.233,-5.183 1.565,-7.879 0.451,-1.082 0.896,-2.159 1.33,-3.247 z"
   id="path775" />
	<path
   d="m 44.867,124.044 c 2.696,-3.596 2.991,-9.589 2.696,-14.091 -0.595,3.575 -1.484,6.925 -2.6,10.232 -0.187,1.292 -0.273,2.578 -0.096,3.859 z"
   id="path777" />
	<path
   d="m 78.051,63.605 c 0.799,-0.841 1.539,-1.688 2.192,-2.514 z"
   id="path779" />
	<path
   d="m 63.204,79.916 c -1.356,1.345 -2.509,2.83 -3.345,4.562 l 2.353,-2.702 c -0.547,1.179 -0.959,2.385 -1.152,3.597 2.262,-3.355 4.535,-6.411 6.925,-9.284 -0.755,0.515 -1.485,1.04 -2.203,1.581 L 78.051,63.606 c -4.7,5.021 -11.379,10.457 -14.847,16.31 z"
   id="path781" />
	<path
   d="m 85.035,60.196 c -6.829,5.022 -12.184,10.055 -17.05,15.892 6.636,-4.481 14.67,-7.954 17.05,-15.892 z"
   id="path783" />
	<path
   d="m 329.953,98.868 c 0.59,1.051 1.308,2.059 2.059,3.055 0.316,0.381 0.621,0.761 0.938,1.147 -0.895,-1.5 -2.096,-2.701 -2.997,-4.202 z"
   id="path785" />
	<path
   d="m 315.262,64.993 c -0.086,0.097 -0.155,0.193 -0.241,0.295 0.235,0 0.241,-0.021 0.241,-0.295 z"
   id="path787" />
	<path
   d="m 122.801,30.212 c -0.605,0.622 3.741,-0.981 3.757,-0.986 -1.217,-3.961 38.431,-8.495 72.049,-10.596 16.771,-0.402 19.018,0.841 22.356,1.297 3.479,0.659 7.644,1.479 27.84,9.284 18.454,5.151 23.985,10.044 24.602,10.757 0.172,-1.308 -6.979,-5.794 -15.618,-8.753 -8.689,-2.911 -11.717,-3.516 -15.598,-5.178 -4.021,-1.244 -8.613,-4.433 -22.207,-7.048 -27.448,-2.707 -27.641,-1.195 -70.317,2.632 -10.602,0.965 -17.736,2.884 -21.311,5.451 -3.751,2.117 -5.279,2.765 -5.553,3.14 z"
   id="path789" />
	<path
   d="m 273.405,39.968 c 0,0.016 0.011,0.038 0,0.054 0.081,0.069 0.081,0.037 0,-0.054 z"
   id="path791" />
	<path
   d="m 220.106,37.475 c -10.924,-1.688 -12.451,-1.972 -14.702,-2.348 -2.139,0.177 -5.569,-2.208 -19.538,1.351 -13.507,4.449 -17.929,4.004 -17.452,4.314 0.488,0.188 6.068,0.038 11.867,-1.828 11.615,-2.648 7.675,-4.267 25.781,-3.018 8.963,1.394 13.347,2.643 19.173,3.318 5.709,0.686 12.709,1.694 26.022,6.223 26.425,9.814 15.533,4.535 15.555,4.427 0.043,0.431 -24.14,-11.592 -46.706,-12.439 z"
   id="path793" />
	<path
   d="m 149.349,19.246 c 15.957,-1.442 10.533,-1.946 34.545,-3.843 12.022,-0.45 18.052,-0.064 25.69,0.584 7.665,0.681 16.81,2.01 34.921,7.011 18.685,3.591 22.544,6.855 23.123,7.359 0.804,0.204 -2.112,-2.691 -2.246,-2.551 0.268,-0.649 -8.19,-3.495 -20.202,-6.137 -11.872,-3.286 -27.711,-7.263 -42.547,-7.209 -29.426,0.869 -8.201,-1.415 -45.437,3.136 -18.604,1.056 -24.624,4.379 -23.745,4.336 0.665,-0.344 7.831,-2.488 15.898,-2.686 z"
   id="path795" />
	<path
   d="m 126.317,35.68 c 21.124,-5.012 13.893,-4.578 45.512,-12.065 16.289,0.225 24.527,0.74 34.898,1.163 4.015,0.338 8.404,0.863 13.518,2.257 -4.48,-0.547 -9.021,-0.734 -13.399,-0.488 -13.663,0.456 -15.479,1.125 -18.288,1.313 -2.761,0.338 -6.604,0.761 -23.284,5.424 -16.701,4.459 -22.356,3.388 -21.708,3.918 0.6,0.134 7.445,0.251 14.724,-1.389 14.483,-3.114 9.38,-3.312 31.297,-7.354 11.052,-1.228 16.675,-0.997 23.734,-0.686 6.979,0.665 15.946,0.611 31.441,8.383 15.544,7.799 20.926,8.147 21.494,8.104 0.664,-0.145 -2.804,-1.479 -2.799,-1.479 -0.042,0.107 -7.578,-2.594 -17.795,-7.804 -1.887,-1.099 -3.966,-2.112 -6.186,-3.028 4.305,0.992 9.016,2.251 14.161,4.245 23.713,9.267 27.181,17.061 28.354,16.905 0.89,0.456 -2.669,-3.72 -2.68,-3.725 0.086,0.048 -8.748,-8.582 -24.753,-14.37 -7.793,-3.329 -17.521,-4.947 -27.153,-7.311 -9.455,-3.446 -20.207,-4.556 -30.166,-4.363 -19.912,-0.156 -22.683,-0.831 -26.81,-0.327 -4.459,-0.595 -9.327,2.578 -33.795,9.176 -48.49,15.448 -30.604,11.203 -10.317,3.501 z"
   id="path797" />
	<path
   d="m 65.729,82.853 c -5.473,5.119 -5.869,7.981 -5.714,7.66 0.327,-0.14 1.849,-2.626 4.042,-4.872 4.535,-4.256 2.798,-3.152 10.516,-8.448 7.885,-4.963 7.622,-5.681 20.25,-12.414 0.113,-0.032 0.225,-0.075 0.338,-0.123 -1.721,2.616 -5.505,4.036 -8.024,5.43 0.895,-0.295 1.795,-0.601 2.701,-1.201 -3.301,2.401 -7.499,4.802 -8.699,9 0.595,0 1.796,0.3 3.001,0 -2.251,1.795 -4.829,3.253 -6.995,5.011 1.908,-1.372 4.229,-2.219 6.4,-3.511 -2.551,1.694 -5.623,3.393 -7.729,5.344 -0.021,0.016 -0.054,0.032 -0.07,0.048 0.011,-0.005 0.032,-0.021 0.048,-0.027 -0.118,0.113 -0.236,0.214 -0.354,0.327 0.23,-0.155 0.429,-0.3 0.627,-0.456 6.266,-3.146 14.466,-3.795 20.362,-7.043 2.096,-1.195 7.193,-5.392 7.788,-7.788 -1.5,-0.306 -3.296,-0.306 -4.787,0.295 2.691,-1.201 5.987,-1.496 8.688,-3.296 -1.795,-0.295 -3.902,-0.295 -5.402,-0.295 1.206,-1.801 3.902,-2.401 5.097,-4.202 -0.895,0 -2.096,-0.3 -3.291,0 4.502,-0.601 9.895,-2.401 12.585,-5.998 -1.19,-0.895 -2.096,-0.3 -3.597,0.306 v -0.605 c -1.796,0.3 -3.597,0.605 -5.698,0.906 0.906,-1.201 2.702,-2.401 3.602,-3.902 -4.497,0.3 -16.788,-0.9 -17.088,5.698 1.801,0.601 3.892,0.601 5.698,0.906 -2.096,1.49 -4.497,2.691 -6.593,4.191 0.064,0 0.145,0.011 0.22,0.021 -4.309,1.973 -9.476,4.889 -13.593,8.555 -9.013,7.079 -2.838,1.242 -14.329,10.483 z"
   id="path799" />
	<path
   d="m 47.317,154.612 c 2.128,-4.947 1.185,-3.403 4.711,-10.698 3.484,-7.322 4.148,-7.011 8.758,-18.824 1.329,-3.934 1.897,-6.062 2.069,-7.156 2.605,-3.264 5.344,-6.341 8.094,-9.771 3.65,-4.438 7.756,-13.186 13.116,-16.573 l -0.831,0.386 c 2.701,-1.201 5.103,-3.602 7.498,-5.403 -1.495,0.906 -3.302,1.206 -5.097,0.906 0.439,-0.23 1.051,-0.777 1.705,-1.174 -1.351,0.622 -2.862,0.863 -4.406,0.863 2.101,-1.795 5.403,-3.591 8.099,-5.692 -3.896,2.101 -8.694,2.696 -12.891,4.197 0.3,-0.3 0.6,-0.595 0.9,-0.895 -2.766,1.104 -7.574,2.471 -9.004,5.274 -2.991,1.699 -6.582,4.775 -7.815,7.75 0.311,-1.201 0.279,-2.76 0.027,-3.73 -2.106,2.375 -4.219,5.687 -4.481,8.903 -2.825,3.403 -4.25,9.841 -3.382,13.534 -2.707,5.226 -4.91,10.918 -3.827,15.63 3.602,-2.696 6.298,-11.095 8.394,-15.592 3.296,-6.593 8.093,-11.384 14.091,-15.582 -4.792,4.551 -7.284,10.436 -10.232,15.978 -0.257,-0.241 -0.991,0.906 -0.954,0.906 0.021,0.016 -0.246,0.782 -0.713,2.069 -0.22,0.375 -0.45,0.756 -0.691,1.125 0.177,-0.23 0.354,-0.456 0.536,-0.691 -1.377,3.752 -4.208,11.106 -7.021,17.527 -3.779,9.15 -1.42,2.3 -6.378,13.931 -4.622,11.796 -2.221,7.83 -0.275,2.802 z"
   id="path801" />
</g></svg>
